<svg width="1024" height="340" viewBox="0 0 1024 340" fill="none" xmlns="http://www.w3.org/2000/svg">
<path d="M887.641 113.581C886.047 107.455 879.784 103.891 873.521 105.227C846.418 111.131 816.241 113.692 788 113.692C759.759 113.692 729.582 111.131 702.48 105.227C696.216 103.891 689.953 107.455 688.359 113.581C686.765 119.819 690.636 126.168 696.9 127.616C715.234 131.625 735.048 134.41 753.837 135.969V269.631C753.837 275.757 758.962 280.77 765.225 280.77C771.488 280.77 776.613 275.757 776.613 269.631V213.939H799.388V269.631C799.388 275.757 804.512 280.77 810.775 280.77C817.039 280.77 822.163 275.757 822.163 269.631V135.969C840.952 134.41 860.767 131.625 878.987 127.616C885.364 126.168 889.236 119.819 887.641 113.581ZM788 102.554C800.527 102.554 810.775 92.5293 810.775 80.277C810.775 68.0246 800.527 58 788 58C775.474 58 765.225 68.0246 765.225 80.277C765.225 92.5293 775.474 102.554 788 102.554Z" fill="#1769E0"/>
<path d="M516.857 199.186C514.122 201.61 509.912 201.61 507.177 199.151L506.781 198.8C487.888 182.111 475.545 171.185 476.013 157.553C476.229 151.58 479.36 145.853 484.434 142.481C493.934 136.156 505.665 139.108 511.999 146.345C518.333 139.108 530.064 136.121 539.564 142.481C544.638 145.853 547.769 151.58 547.985 157.553C548.489 171.185 536.11 182.111 517.217 198.87L516.857 199.186Z" fill="#EA1D2C"/>
<path d="M173.363 128.19H298.637V224.894C298.637 232.986 292.077 239.546 283.985 239.546H188.015C179.923 239.546 173.363 232.986 173.363 224.894V128.19Z" fill="#85DB89"/>
<path d="M266.548 73.8035L277.548 55.0901C278.529 53.4389 277.968 51.3749 276.287 50.4117C274.605 49.4485 272.503 49.9989 271.523 51.6501L260.312 70.7764C252.815 67.6804 244.618 65.9604 236 65.9604C227.382 65.9604 219.185 67.6804 211.758 70.7764L200.548 51.6501C199.567 49.9989 197.395 49.4485 195.713 50.4117C194.032 51.3061 193.471 53.4389 194.452 55.0901L205.452 73.8035C188.006 83.2979 175.675 100.635 173.363 121H298.637C296.325 100.635 283.994 83.2979 266.548 73.8035ZM207.974 107.24C204.121 107.24 200.968 104.144 200.968 100.36C200.968 96.5762 204.121 93.4802 207.974 93.4802C211.828 93.4802 214.981 96.5762 214.981 100.36C214.981 104.144 211.828 107.24 207.974 107.24ZM264.026 107.24C260.172 107.24 257.019 104.144 257.019 100.36C257.019 96.5762 260.172 93.4802 264.026 93.4802C267.879 93.4802 271.032 96.5762 271.032 100.36C271.032 104.144 267.879 107.24 264.026 107.24Z" fill="#85DB89"/>
<path d="M136 142.476C136 134.586 142.396 128.19 150.286 128.19C158.175 128.19 164.571 134.586 164.571 142.476V202.549C164.571 210.439 158.175 216.835 150.286 216.835C142.396 216.835 136 210.439 136 202.549V142.476Z" fill="#85DB89"/>
<path d="M307.429 142.476C307.429 134.586 313.825 128.19 321.714 128.19C329.604 128.19 336 134.586 336 142.476V202.549C336 210.439 329.604 216.835 321.714 216.835C313.825 216.835 307.429 210.439 307.429 202.549V142.476Z" fill="#85DB89"/>
<path d="M196.806 238.546H225.377V271.879C225.377 279.769 218.981 286.165 211.092 286.165C203.202 286.165 196.806 279.769 196.806 271.879V238.546Z" fill="#85DB89"/>
<path d="M245.89 238.546H274.462V271.879C274.462 279.769 268.066 286.165 260.176 286.165C252.286 286.165 245.89 279.769 245.89 271.879V238.546Z" fill="#85DB89"/>
</svg>
